<mxfile host="app.diagrams.net" modified="2024-05-14T02:45:13.412Z" agent="Mozilla/5.0 (Windows NT 10.0; Win64; x64) AppleWebKit/537.36 (KHTML, like Gecko) Chrome/124.0.0.0 Safari/537.36" version="24.4.0" etag="A1NTiA_-LCo54XV0Tv9H" type="github">
  <diagram name="페이지-1" id="rcTUuAiInjb_kglPncTQ">
    <mxGraphModel>
      <root>
        <mxCell id="0" />
        <mxCell id="1" parent="0" />
      </root>
    </mxGraphModel>
  </diagram>
</mxfile>
